<?xml version="1.0" encoding="utf-8"?>
<!-- Generator: Adobe Illustrator 26.0.3, SVG Export Plug-In . SVG Version: 6.00 Build 0)  -->
<svg version="1.1" id="Layer_1" xmlns="http://www.w3.org/2000/svg" xmlns:xlink="http://www.w3.org/1999/xlink" x="0px" y="0px"
	 viewBox="0 0 24 24" style="enable-background:new 0 0 24 24;" xml:space="preserve">
<style type="text/css">
	.st0{fill:#5A5A5A;}
</style>
<path class="st0" d="M11.5,4C9,4,7,6,7,8.5S9,13,11.5,13S16,11,16,8.5S14,4,11.5,4z M12.2,10.5h-1.4V7.8h-1l1.4-1.4h1.1v4.1H12.2z"
	/>
<path class="st0" d="M21.8,14.1c-0.2-0.2-0.5-0.4-1.1-0.5s-3.8-0.5-4.2-0.6c-0.6-0.1-1.3,0.2-2.2,0.8c-0.6,0.4-1.8,1.1-1.9,1.1
	C12.5,15,13,15,13,15h0.1c1.1,0,1.9,0.9,1.9,1.9v0.2c0,1.1-0.9,1.9-1.9,1.9H11c-1.8,0-3.5-1.8-3.5-1.8S9.6,18,11,18h2
	c0.6,0,1-0.5,1-1l0,0c0-0.5-0.4-1-0.9-1c-1.9-0.2-2.7-1-2.7-1s-1.7-1.3-2.3-1.6c-2.1-1.2-6,1.3-6,1.3l2.6,5.7c0,0,1.3-0.8,3.1-0.1
	c1.2,0.5,1.9,0.9,3.1,1.3c1.7,0.6,2.3,0.5,3.4-0.3c1-0.7,5.8-4.5,6.5-5C21.8,15.4,22.3,14.7,21.8,14.1z"/>
<path class="st0" d="M16.5,3c-0.8,0-1.6,0.3-2.2,0.8c0.6,0.4,1.2,0.9,1.6,1.4l0.3-0.3H17c0,0,0,2.4,0,3.6c0,0.5-0.1,1-0.2,1.5
	C18.6,9.8,20,8.3,20,6.5C20,4.6,18.4,3,16.5,3z"/>
</svg>
