<?xml version="1.0" encoding="utf-8"?>
<!-- Generator: Adobe Illustrator 26.0.3, SVG Export Plug-In . SVG Version: 6.00 Build 0)  -->
<svg version="1.1" id="Layer_1" xmlns="http://www.w3.org/2000/svg" xmlns:xlink="http://www.w3.org/1999/xlink" x="0px" y="0px"
	 viewBox="0 0 32 32" style="enable-background:new 0 0 32 32;" xml:space="preserve">
<style type="text/css">
	.st0{fill:#FFFFFF;}
</style>
<g id="Tag">
	<circle class="st0" cx="11" cy="11" r="2"/>
	<path class="st0" d="M27.2,16L16.1,4.9C15.6,4.3,14.8,4,14,4H7C5.3,4,4,5.3,4,7v7c0,0.8,0.3,1.6,0.9,2.1L16,27.2
		c1.2,1.2,3.1,1.2,4.2,0l7-7C28.4,19.1,28.4,17.2,27.2,16z M11,15c-2.2,0-4-1.8-4-4s1.8-4,4-4s4,1.8,4,4S13.2,15,11,15z"/>
</g>
</svg>
